<?xml version="1.0" standalone="no"?>
 <!DOCTYPE svg PUBLIC "-//W3C//DTD SVG 1.1//EN" 
 "http://www.w3.org/Graphics/SVG/1.1/DTD/svg11.dtd"> 
<svg
  xmlns:svg="http://www.w3.org/2000/svg"
  xmlns="http://www.w3.org/2000/svg"
  xmlns:xlink="http://www.w3.org/1999/xlink"
  version="1.1"
  width="419.9890mm" height="297.0022mm" viewBox="0.0000 0.0000 419.9890 297.0022">
<title>SVG Image created as BMW_E30_Early_Cluster_Nexus-Edge_Cuts.svg date 2025/08/08 07:57:09 </title>
  <desc>Image generated by PCBNEW </desc>
<g style="fill:#000000; fill-opacity:1.0000;stroke:#000000; stroke-opacity:1.0000;
stroke-linecap:round; stroke-linejoin:round;"
 transform="translate(0 0) scale(1 1)">
</g>
<g style="fill:none; 
stroke:#000000; stroke-width:0.1000; stroke-opacity:1; 
stroke-linecap:round; stroke-linejoin:round;">
<path d="M362.4000 204.6843
L362.4000 209.0000
" />
<path d="M113.1864 72.4890
L92.5829 84.7539
" />
</g>
<g style="fill:none; 
stroke:#000000; stroke-width:0.0500; stroke-opacity:1; 
stroke-linecap:round; stroke-linejoin:round;">
<path d="M300.9900 88.9000 A48.8780 48.8780 0.0 0 0 269.2400 75.6920" />
<circle cx="47.2000" cy="162.4000" r="1.6000" /> 
</g>
<g style="fill:none; 
stroke:#000000; stroke-width:0.1000; stroke-opacity:1; 
stroke-linecap:round; stroke-linejoin:round;">
<path d="M53.6000 204.6843 A20.0001 20.0001 0.0 0 0 47.7421 190.5421" />
</g>
<g style="fill:none; 
stroke:#000000; stroke-width:0.0500; stroke-opacity:1; 
stroke-linecap:round; stroke-linejoin:round;">
<path d="M133.3500 174.2440
L129.2000 170.2000
" />
</g>
<g style="fill:none; 
stroke:#000000; stroke-width:0.1000; stroke-opacity:1; 
stroke-linecap:round; stroke-linejoin:round;">
<path d="M385.4299 144.8033
L386.4000 183.0000
" />
<path d="M150.0000 63.0000 A74.9021 74.9021 0.0 0 0 113.1864 72.4890" />
</g>
<g style="fill:none; 
stroke:#000000; stroke-width:0.0500; stroke-opacity:1; 
stroke-linecap:round; stroke-linejoin:round;">
<circle cx="381.2000" cy="172.4000" r="2.0000" /> 
<circle cx="117.0500" cy="194.8000" r="2.0000" /> 
</g>
<g style="fill:none; 
stroke:#000000; stroke-width:0.1000; stroke-opacity:1; 
stroke-linecap:round; stroke-linejoin:round;">
<path d="M368.2579 190.5421 A20.0001 20.0001 0.0 0 0 362.4000 204.6843" />
</g>
<g style="fill:none; 
stroke:#000000; stroke-width:0.0500; stroke-opacity:1; 
stroke-linecap:round; stroke-linejoin:round;">
<path d="M177.2920 157.9880
L177.2920 174.2440
" />
<circle cx="106.0000" cy="188.2000" r="6.2000" /> 
<path d="M177.2920 157.9880
L187.1980 157.9880
" />
<path d="M193.2000 147.8000
L187.1980 157.9880
" />
</g>
<g style="fill:none; 
stroke:#000000; stroke-width:0.1000; stroke-opacity:1; 
stroke-linecap:round; stroke-linejoin:round;">
<path d="M386.4000 183.0000
L375.8000 183.0000
" />
<path d="M53.6000 209.0000
L53.6000 204.6843
" />
</g>
<g style="fill:none; 
stroke:#000000; stroke-width:0.0500; stroke-opacity:1; 
stroke-linecap:round; stroke-linejoin:round;">
<circle cx="324.8000" cy="92.6000" r="2.0000" /> 
<circle cx="67.3000" cy="198.4822" r="1.6000" /> 
<path d="M231.6480 159.6610
L240.8512 168.9100
" />
</g>
<g style="fill:none; 
stroke:#000000; stroke-width:0.1000; stroke-opacity:1; 
stroke-linecap:round; stroke-linejoin:round;">
<path d="M362.4000 209.0000
L358.4000 213.0000
" />
</g>
<g style="fill:none; 
stroke:#000000; stroke-width:0.0500; stroke-opacity:1; 
stroke-linecap:round; stroke-linejoin:round;">
<path d="M316.4840 104.3940
L300.9900 88.9000
" />
</g>
<g style="fill:none; 
stroke:#000000; stroke-width:0.1000; stroke-opacity:1; 
stroke-linecap:round; stroke-linejoin:round;">
<path d="M44.4892 117.7463 A35.0000 35.0000 0.0 0 0 30.5701 144.8033" />
</g>
<g style="fill:none; 
stroke:#000000; stroke-width:0.0500; stroke-opacity:1; 
stroke-linecap:round; stroke-linejoin:round;">
<path d="M269.2400 75.6920
L241.0460 75.6920
" />
<path d="M193.2000 129.4000
L193.2000 147.8000
" />
<path d="M129.2000 158.2000
L129.2000 170.2000
" />
<path d="M203.8000 103.6000 A2.0000 2.0000 0.0 0 0 201.8000 101.6000" />
<path d="M150.0000 63.0000
L266.0000 63.0000
" />
<circle cx="66.0000" cy="188.2000" r="6.2000" /> 
</g>
<g style="fill:none; 
stroke:#000000; stroke-width:0.1000; stroke-opacity:1; 
stroke-linecap:round; stroke-linejoin:round;">
<path d="M375.8000 183.0000
L368.2579 190.5421
" />
<path d="M64.2137 103.4841
L44.4892 117.7463
" />
</g>
<g style="fill:none; 
stroke:#000000; stroke-width:0.0500; stroke-opacity:1; 
stroke-linecap:round; stroke-linejoin:round;">
<circle cx="308.9000" cy="188.2000" r="6.2000" /> 
</g>
<g style="fill:none; 
stroke:#000000; stroke-width:0.1000; stroke-opacity:1; 
stroke-linecap:round; stroke-linejoin:round;">
<path d="M29.6000 183.0000
L40.2000 183.0000
" />
</g>
<g style="fill:none; 
stroke:#000000; stroke-width:0.0500; stroke-opacity:1; 
stroke-linecap:round; stroke-linejoin:round;">
<circle cx="166.8000" cy="188.2000" r="6.2000" /> 
</g>
<g style="fill:none; 
stroke:#000000; stroke-width:0.1000; stroke-opacity:1; 
stroke-linecap:round; stroke-linejoin:round;">
<path d="M30.5701 144.8033
L29.6000 183.0000
" />
<path d="M57.6000 213.0000
L358.4000 213.0000
" />
<path d="M302.8136 72.4890 A74.9021 74.9021 0.0 0 0 266.0000 63.0000" />
</g>
<g style="fill:none; 
stroke:#000000; stroke-width:0.0500; stroke-opacity:1; 
stroke-linecap:round; stroke-linejoin:round;">
<circle cx="185.0000" cy="67.8000" r="2.0000" /> 
<circle cx="231.0000" cy="67.8000" r="2.0000" /> 
<circle cx="86.0000" cy="188.2000" r="6.2000" /> 
<circle cx="34.8000" cy="172.4000" r="2.0000" /> 
</g>
<g style="fill:none; 
stroke:#000000; stroke-width:0.1000; stroke-opacity:1; 
stroke-linecap:round; stroke-linejoin:round;">
<path d="M351.7863 103.4841 A400.0008 400.0008 0.0 0 0 323.4171 84.7539" />
</g>
<g style="fill:none; 
stroke:#000000; stroke-width:0.0500; stroke-opacity:1; 
stroke-linecap:round; stroke-linejoin:round;">
<path d="M193.4000 89.0000
L193.4000 101.6000
" />
<path d="M201.8000 129.4000 A1.9999 1.9999 0.0 0 0 203.8000 127.4000" />
<path d="M193.4000 101.6000
L201.8000 101.6000
" />
<path d="M298.7040 168.9100
L316.4840 151.1300
" />
<path d="M231.6480 159.6610
L231.6480 85.0900
" />
</g>
<g style="fill:none; 
stroke:#000000; stroke-width:0.1000; stroke-opacity:1; 
stroke-linecap:round; stroke-linejoin:round;">
<path d="M351.7863 103.4841
L371.5108 117.7463
" />
<path d="M385.4299 144.8033 A35.0001 35.0001 0.0 0 0 371.5108 117.7463" />
<path d="M92.5829 84.7539 A400.0032 400.0032 0.0 0 0 64.2137 103.4841" />
</g>
<g style="fill:none; 
stroke:#000000; stroke-width:0.0500; stroke-opacity:1; 
stroke-linecap:round; stroke-linejoin:round;">
<path d="M203.8000 103.6000
L203.8000 127.4000
" />
<circle cx="368.8000" cy="162.4000" r="1.6000" /> 
<circle cx="91.2000" cy="92.6000" r="2.0000" /> 
<path d="M240.8512 168.9100
L298.7040 168.9100
" />
<path d="M201.8000 129.4000
L193.2000 129.4000
" />
<circle cx="120.0000" cy="176.2000" r="3.0000" /> 
<path d="M316.4840 151.1300
L316.4840 104.3940
" />
<path d="M191.4000 87.0000
L114.7333 87.0000
" />
<path d="M177.2920 174.2440
L133.3500 174.2440
" />
<path d="M193.4000 89.0000 A2.0000 2.0000 0.0 0 0 191.4000 87.0000" />
</g>
<g style="fill:none; 
stroke:#000000; stroke-width:0.1000; stroke-opacity:1; 
stroke-linecap:round; stroke-linejoin:round;">
<path d="M53.6000 209.0000
L57.6000 213.0000
" />
</g>
<g style="fill:none; 
stroke:#000000; stroke-width:0.0500; stroke-opacity:1; 
stroke-linecap:round; stroke-linejoin:round;">
<path d="M241.0460 75.6920
L231.6480 85.0900
" />
<circle cx="208.0000" cy="152.2000" r="2.0000" /> 
</g>
<g style="fill:none; 
stroke:#000000; stroke-width:0.1000; stroke-opacity:1; 
stroke-linecap:round; stroke-linejoin:round;">
<path d="M40.2000 183.0000
L47.7421 190.5421
" />
<path d="M302.8136 72.4890
L323.4171 84.7539
" />
</g>
<g style="fill:none; 
stroke:#000000; stroke-width:0.0500; stroke-opacity:1; 
stroke-linecap:round; stroke-linejoin:round;">
<path d="M114.7333 87.0000 A50.6377 50.6377 0.0 0 0 111.4000 158.2000" />
<circle cx="298.9500" cy="194.8000" r="2.0000" /> 
<path d="M129.2000 158.2000
L111.4000 158.2000
" />
</g>
<g style="fill:none; 
stroke:#000000; stroke-width:0.1200; stroke-opacity:1; 
stroke-linecap:round; stroke-linejoin:round;">
<circle cx="170.2796" cy="201.1040" r="2.2361" /> 
<circle cx="245.2796" cy="201.1040" r="2.2361" /> 
</g>
<g style="fill:none; 
stroke:#000000; stroke-width:0.0500; stroke-opacity:1; 
stroke-linecap:round; stroke-linejoin:round;">
<path d="M311.5572 171.2000
L313.6705 171.1975
" />
<path d="M311.5572 175.6000
L313.6705 175.6025
" />
<path d="M325.9015 175.6025
L328.0148 175.6000
" />
<path d="M328.0148 171.2000
L325.9015 171.1975
" />
<path d="M311.5572 171.2000 A8.5179 8.5179 0.0 0 0 311.5572 175.6000" />
<path d="M325.9015 171.1975 A6.5000 6.5000 0.0 0 0 313.6705 171.1975" />
<path d="M313.6705 175.6025 A6.5000 6.5000 0.0 0 0 325.9015 175.6025" />
<path d="M328.0148 175.6000 A8.5179 8.5179 0.0 0 0 328.0148 171.2000" />
<path style="fill:none; 
stroke:#000000; stroke-width:0.0500; stroke-opacity:1; 
stroke-linecap:round; stroke-linejoin:round;fill:none"
d="M 321.2860,163.2000
318.2860,163.2000
318.2860,160.2000
321.2860,160.2000
Z" /> 
<path d="M347.2000 184.1738
L347.2000 182.3935
" />
<path d="M347.2000 192.2262
L347.2000 194.0065
" />
<path d="M350.2000 184.1738
L350.2000 182.3935
" />
<path d="M350.2000 192.2262
L350.2000 194.0065
" />
<path d="M350.2000 182.3935 A5.9972 5.9972 0.0 0 0 347.2000 182.3935" />
<path d="M347.2000 184.1738 A4.2966 4.2966 0.0 0 0 347.2000 192.2262" />
<path d="M350.2000 192.2262 A4.2966 4.2966 0.0 0 0 350.2000 184.1738" />
<path d="M347.2000 194.0065 A5.9972 5.9972 0.0 0 0 350.2000 194.0065" />
</g>
<g style="fill:none; 
stroke:#000000; stroke-width:0.1200; stroke-opacity:1; 
stroke-linecap:round; stroke-linejoin:round;">
<circle cx="61.9760" cy="151.7980" r="1.3500" /> 
<circle cx="61.9760" cy="171.7980" r="1.3500" /> 
<circle cx="353.5680" cy="152.0520" r="1.3500" /> 
<circle cx="353.5680" cy="172.0520" r="1.3500" /> 
</g>
<g style="fill:none; 
stroke:#000000; stroke-width:0.0500; stroke-opacity:1; 
stroke-linecap:round; stroke-linejoin:round;">
<path d="M88.1712 171.2000
L90.2845 171.1975
" />
<path d="M88.1712 175.6000
L90.2845 175.6025
" />
<path d="M102.5155 175.6025
L104.6288 175.6000
" />
<path d="M104.6288 171.2000
L102.5155 171.1975
" />
<path d="M88.1712 171.2000 A8.5179 8.5179 0.0 0 0 88.1712 175.6000" />
<path d="M102.5155 171.1975 A6.5000 6.5000 0.0 0 0 90.2845 171.1975" />
<path d="M90.2845 175.6025 A6.5000 6.5000 0.0 0 0 102.5155 175.6025" />
<path d="M104.6288 175.6000 A8.5179 8.5179 0.0 0 0 104.6288 171.2000" />
<path style="fill:none; 
stroke:#000000; stroke-width:0.0500; stroke-opacity:1; 
stroke-linecap:round; stroke-linejoin:round;fill:none"
d="M 97.9000,163.2000
94.9000,163.2000
94.9000,160.2000
97.9000,160.2000
Z" /> 
<path d="M195.9738 72.5000
L194.1935 72.5000
" />
<path d="M195.9738 75.5000
L194.1935 75.5000
" />
<path d="M204.0262 72.5000
L205.8065 72.5000
" />
<path d="M204.0262 75.5000
L205.8065 75.5000
" />
<path d="M194.1935 72.5000 A5.9972 5.9972 0.0 0 0 194.1935 75.5000" />
<path d="M204.0262 72.5000 A4.2966 4.2966 0.0 0 0 195.9738 72.5000" />
<path d="M195.9738 75.5000 A4.2966 4.2966 0.0 0 0 204.0262 75.5000" />
<path d="M205.8065 75.5000 A5.9972 5.9972 0.0 0 0 205.8065 72.5000" />
<path d="M265.0738 186.7000
L263.2935 186.7000
" />
<path d="M265.0738 189.7000
L263.2935 189.7000
" />
<path d="M273.1262 186.7000
L274.9065 186.7000
" />
<path d="M273.1262 189.7000
L274.9065 189.7000
" />
<path d="M263.2935 186.7000 A5.9972 5.9972 0.0 0 0 263.2935 189.7000" />
<path d="M273.1262 186.7000 A4.2966 4.2966 0.0 0 0 265.0738 186.7000" />
<path d="M265.0738 189.7000 A4.2966 4.2966 0.0 0 0 273.1262 189.7000" />
<path d="M274.9065 189.7000 A5.9972 5.9972 0.0 0 0 274.9065 186.7000" />
<path d="M245.1738 186.7000
L243.3935 186.7000
" />
<path d="M245.1738 189.7000
L243.3935 189.7000
" />
<path d="M253.2262 186.7000
L255.0065 186.7000
" />
<path d="M253.2262 189.7000
L255.0065 189.7000
" />
<path d="M243.3935 186.7000 A5.9972 5.9972 0.0 0 0 243.3935 189.7000" />
<path d="M253.2262 186.7000 A4.2966 4.2966 0.0 0 0 245.1738 186.7000" />
<path d="M245.1738 189.7000 A4.2966 4.2966 0.0 0 0 253.2262 189.7000" />
<path d="M255.0065 189.7000 A5.9972 5.9972 0.0 0 0 255.0065 186.7000" />
<path d="M284.9738 186.7000
L283.1935 186.7000
" />
<path d="M284.9738 189.7000
L283.1935 189.7000
" />
<path d="M293.0262 186.7000
L294.8065 186.7000
" />
<path d="M293.0262 189.7000
L294.8065 189.7000
" />
<path d="M283.1935 186.7000 A5.9972 5.9972 0.0 0 0 283.1935 189.7000" />
<path d="M293.0262 186.7000 A4.2966 4.2966 0.0 0 0 284.9738 186.7000" />
<path d="M284.9738 189.7000 A4.2966 4.2966 0.0 0 0 293.0262 189.7000" />
<path d="M294.8065 189.7000 A5.9972 5.9972 0.0 0 0 294.8065 186.7000" />
<path d="M142.8738 186.7000
L141.0935 186.7000
" />
<path d="M142.8738 189.7000
L141.0935 189.7000
" />
<path d="M150.9262 186.7000
L152.7065 186.7000
" />
<path d="M150.9262 189.7000
L152.7065 189.7000
" />
<path d="M141.0935 186.7000 A5.9972 5.9972 0.0 0 0 141.0935 189.7000" />
<path d="M150.9262 186.7000 A4.2966 4.2966 0.0 0 0 142.8738 186.7000" />
<path d="M142.8738 189.7000 A4.2966 4.2966 0.0 0 0 150.9262 189.7000" />
<path d="M152.7065 189.7000 A5.9972 5.9972 0.0 0 0 152.7065 186.7000" />
<path d="M206.5000 87.1738
L206.5000 85.3935
" />
<path d="M206.5000 95.2262
L206.5000 97.0065
" />
<path d="M209.5000 87.1738
L209.5000 85.3935
" />
<path d="M209.5000 95.2262
L209.5000 97.0065
" />
<path d="M209.5000 85.3935 A5.9972 5.9972 0.0 0 0 206.5000 85.3935" />
<path d="M206.5000 87.1738 A4.2966 4.2966 0.0 0 0 206.5000 95.2262" />
<path d="M209.5000 95.2262 A4.2966 4.2966 0.0 0 0 209.5000 87.1738" />
<path d="M206.5000 97.0065 A5.9972 5.9972 0.0 0 0 209.5000 97.0065" />
<path d="M125.5000 184.1738
L125.5000 182.3935
" />
<path d="M125.5000 192.2262
L125.5000 194.0065
" />
<path d="M128.5000 184.1738
L128.5000 182.3935
" />
<path d="M128.5000 192.2262
L128.5000 194.0065
" />
<path d="M128.5000 182.3935 A5.9972 5.9972 0.0 0 0 125.5000 182.3935" />
<path d="M125.5000 184.1738 A4.2966 4.2966 0.0 0 0 125.5000 192.2262" />
<path d="M128.5000 192.2262 A4.2966 4.2966 0.0 0 0 128.5000 184.1738" />
<path d="M125.5000 194.0065 A5.9972 5.9972 0.0 0 0 128.5000 194.0065" />
<path d="M321.4632 186.7760
L323.5765 186.7735
" />
<path d="M321.4632 191.1760
L323.5765 191.1785
" />
<path d="M335.8075 191.1785
L337.9208 191.1760
" />
<path d="M337.9208 186.7760
L335.8075 186.7735
" />
<path d="M321.4632 186.7760 A8.5179 8.5179 0.0 0 0 321.4632 191.1760" />
<path d="M335.8075 186.7735 A6.5000 6.5000 0.0 0 0 323.5765 186.7735" />
<path d="M323.5765 191.1785 A6.5000 6.5000 0.0 0 0 335.8075 191.1785" />
<path d="M337.9208 191.1760 A8.5179 8.5179 0.0 0 0 337.9208 186.7760" />
<path d="M204.6879 168.3368
L203.7977 169.8786
" />
<path d="M207.2859 169.8368
L206.3958 171.3786
" />
<path d="M208.7141 161.3632
L209.6042 159.8214
" />
<path d="M211.3121 162.8632
L212.2023 161.3214
" />
<path d="M208.7141 161.3632 A4.2966 4.2966 0.0 0 0 204.6879 168.3368" />
<path d="M203.7977 169.8786 A5.9972 5.9972 0.0 0 0 206.3958 171.3786" />
<path d="M212.2023 161.3214 A5.9972 5.9972 0.0 0 0 209.6042 159.8214" />
<path d="M207.2859 169.8368 A4.2966 4.2966 0.0 0 0 211.3121 162.8632" />
<path d="M41.3000 146.3738
L41.3000 144.5935
" />
<path d="M41.3000 154.4262
L41.3000 156.2065
" />
<path d="M44.3000 146.3738
L44.3000 144.5935
" />
<path d="M44.3000 154.4262
L44.3000 156.2065
" />
<path d="M44.3000 144.5935 A5.9972 5.9972 0.0 0 0 41.3000 144.5935" />
<path d="M41.3000 146.3738 A4.2966 4.2966 0.0 0 0 41.3000 154.4262" />
<path d="M44.3000 154.4262 A4.2966 4.2966 0.0 0 0 44.3000 146.3738" />
<path d="M41.3000 156.2065 A5.9972 5.9972 0.0 0 0 44.3000 156.2065" />
<path d="M211.9738 72.5000
L210.1935 72.5000
" />
<path d="M211.9738 75.5000
L210.1935 75.5000
" />
<path d="M220.0262 72.5000
L221.8065 72.5000
" />
<path d="M220.0262 75.5000
L221.8065 75.5000
" />
<path d="M210.1935 72.5000 A5.9972 5.9972 0.0 0 0 210.1935 75.5000" />
<path d="M220.0262 72.5000 A4.2966 4.2966 0.0 0 0 211.9738 72.5000" />
<path d="M211.9738 75.5000 A4.2966 4.2966 0.0 0 0 220.0262 75.5000" />
<path d="M221.8065 75.5000 A5.9972 5.9972 0.0 0 0 221.8065 72.5000" />
<path d="M373.3000 147.7738
L373.3000 145.9935
" />
<path d="M373.3000 155.8262
L373.3000 157.6065
" />
<path d="M376.3000 147.7738
L376.3000 145.9935
" />
<path d="M376.3000 155.8262
L376.3000 157.6065
" />
<path d="M376.3000 145.9935 A5.9972 5.9972 0.0 0 0 373.3000 145.9935" />
<path d="M373.3000 147.7738 A4.2966 4.2966 0.0 0 0 373.3000 155.8262" />
<path d="M376.3000 155.8262 A4.2966 4.2966 0.0 0 0 376.3000 147.7738" />
<path d="M373.3000 157.6065 A5.9972 5.9972 0.0 0 0 376.3000 157.6065" />
</g> 
</svg>
